<mxfile host="app.diagrams.net" agent="Mozilla/5.0 (Windows NT 10.0; Win64; x64) AppleWebKit/537.36 (KHTML, like Gecko) Chrome/130.0.0.0 Safari/537.36" version="24.8.3">
  <diagram id="WI9T0HZ2pTsCkuznbFz-" name="Page-1">
    <mxGraphModel dx="1567" dy="591" grid="1" gridSize="10" guides="1" tooltips="1" connect="1" arrows="1" fold="1" page="1" pageScale="1" pageWidth="1169" pageHeight="827" math="0" shadow="0">
      <root>
        <mxCell id="0" />
        <mxCell id="1" parent="0" />
        <mxCell id="NRGbvaWVTnNYALB_0vKa-22" value="" style="edgeStyle=orthogonalEdgeStyle;rounded=0;orthogonalLoop=1;jettySize=auto;html=1;entryX=0.453;entryY=-0.015;entryDx=0;entryDy=0;entryPerimeter=0;" edge="1" parent="1" source="NRGbvaWVTnNYALB_0vKa-1" target="NRGbvaWVTnNYALB_0vKa-5">
          <mxGeometry relative="1" as="geometry" />
        </mxCell>
        <mxCell id="NRGbvaWVTnNYALB_0vKa-1" value="" style="verticalLabelPosition=bottom;html=1;verticalAlign=top;align=center;strokeColor=none;fillColor=#00BEF2;shape=mxgraph.azure.database;" vertex="1" parent="1">
          <mxGeometry x="570" y="190" width="37.5" height="50" as="geometry" />
        </mxCell>
        <mxCell id="NRGbvaWVTnNYALB_0vKa-20" value="" style="edgeStyle=orthogonalEdgeStyle;rounded=0;orthogonalLoop=1;jettySize=auto;html=1;" edge="1" parent="1" source="NRGbvaWVTnNYALB_0vKa-2" target="NRGbvaWVTnNYALB_0vKa-5">
          <mxGeometry relative="1" as="geometry" />
        </mxCell>
        <mxCell id="NRGbvaWVTnNYALB_0vKa-2" value="" style="verticalLabelPosition=bottom;html=1;verticalAlign=top;align=center;strokeColor=none;fillColor=#00BEF2;shape=mxgraph.azure.database;" vertex="1" parent="1">
          <mxGeometry x="620" y="170" width="37.5" height="50" as="geometry" />
        </mxCell>
        <mxCell id="NRGbvaWVTnNYALB_0vKa-3" value="" style="verticalLabelPosition=bottom;html=1;verticalAlign=top;align=center;strokeColor=none;fillColor=#00BEF2;shape=mxgraph.azure.database;" vertex="1" parent="1">
          <mxGeometry x="570" y="120" width="37.5" height="50" as="geometry" />
        </mxCell>
        <mxCell id="NRGbvaWVTnNYALB_0vKa-21" value="" style="edgeStyle=orthogonalEdgeStyle;rounded=0;orthogonalLoop=1;jettySize=auto;html=1;exitX=0.5;exitY=1;exitDx=0;exitDy=0;exitPerimeter=0;" edge="1" parent="1" source="NRGbvaWVTnNYALB_0vKa-4" target="NRGbvaWVTnNYALB_0vKa-5">
          <mxGeometry relative="1" as="geometry">
            <Array as="points">
              <mxPoint x="539" y="260" />
              <mxPoint x="580" y="260" />
            </Array>
          </mxGeometry>
        </mxCell>
        <mxCell id="NRGbvaWVTnNYALB_0vKa-4" value="" style="verticalLabelPosition=bottom;html=1;verticalAlign=top;align=center;strokeColor=none;fillColor=#00BEF2;shape=mxgraph.azure.database;" vertex="1" parent="1">
          <mxGeometry x="520" y="160" width="37.5" height="50" as="geometry" />
        </mxCell>
        <mxCell id="NRGbvaWVTnNYALB_0vKa-23" value="" style="edgeStyle=orthogonalEdgeStyle;rounded=0;orthogonalLoop=1;jettySize=auto;html=1;exitX=0.155;exitY=1;exitDx=0;exitDy=0;exitPerimeter=0;" edge="1" parent="1" source="NRGbvaWVTnNYALB_0vKa-5" target="NRGbvaWVTnNYALB_0vKa-15">
          <mxGeometry relative="1" as="geometry">
            <Array as="points">
              <mxPoint x="380" y="460" />
            </Array>
          </mxGeometry>
        </mxCell>
        <mxCell id="NRGbvaWVTnNYALB_0vKa-5" value="" style="verticalLabelPosition=bottom;html=1;verticalAlign=top;align=center;strokeColor=none;fillColor=#00BEF2;shape=mxgraph.azure.computer;pointerEvents=1;" vertex="1" parent="1">
          <mxGeometry x="500" y="310" width="210" height="150" as="geometry" />
        </mxCell>
        <mxCell id="NRGbvaWVTnNYALB_0vKa-10" value="" style="verticalLabelPosition=bottom;html=1;verticalAlign=top;align=center;strokeColor=none;fillColor=#00BEF2;shape=mxgraph.azure.user;" vertex="1" parent="1">
          <mxGeometry x="340" y="300" width="47.5" height="50" as="geometry" />
        </mxCell>
        <mxCell id="NRGbvaWVTnNYALB_0vKa-11" style="edgeStyle=orthogonalEdgeStyle;rounded=0;orthogonalLoop=1;jettySize=auto;html=1;entryX=0;entryY=0.356;entryDx=0;entryDy=0;entryPerimeter=0;" edge="1" parent="1" source="NRGbvaWVTnNYALB_0vKa-10" target="NRGbvaWVTnNYALB_0vKa-5">
          <mxGeometry relative="1" as="geometry">
            <Array as="points">
              <mxPoint x="364" y="363" />
            </Array>
          </mxGeometry>
        </mxCell>
        <mxCell id="NRGbvaWVTnNYALB_0vKa-12" value="" style="verticalLabelPosition=bottom;html=1;verticalAlign=top;align=center;strokeColor=none;fillColor=#00BEF2;shape=mxgraph.azure.startup_task;pointerEvents=1;" vertex="1" parent="1">
          <mxGeometry x="781.25" y="310" width="47.5" height="50" as="geometry" />
        </mxCell>
        <mxCell id="NRGbvaWVTnNYALB_0vKa-13" style="edgeStyle=orthogonalEdgeStyle;rounded=0;orthogonalLoop=1;jettySize=auto;html=1;entryX=0;entryY=0.5;entryDx=0;entryDy=0;entryPerimeter=0;" edge="1" parent="1" source="NRGbvaWVTnNYALB_0vKa-5" target="NRGbvaWVTnNYALB_0vKa-12">
          <mxGeometry relative="1" as="geometry">
            <Array as="points">
              <mxPoint x="690" y="335" />
              <mxPoint x="690" y="335" />
            </Array>
          </mxGeometry>
        </mxCell>
        <mxCell id="NRGbvaWVTnNYALB_0vKa-15" value="" style="verticalLabelPosition=bottom;html=1;verticalAlign=top;align=center;strokeColor=none;fillColor=#00BEF2;shape=mxgraph.azure.storage;pointerEvents=1;" vertex="1" parent="1">
          <mxGeometry x="330" y="540" width="100" height="70" as="geometry" />
        </mxCell>
        <mxCell id="NRGbvaWVTnNYALB_0vKa-17" value="Resources" style="text;html=1;align=center;verticalAlign=middle;whiteSpace=wrap;rounded=0;fontSize=15;" vertex="1" parent="1">
          <mxGeometry x="430" y="160" width="60" height="30" as="geometry" />
        </mxCell>
        <mxCell id="NRGbvaWVTnNYALB_0vKa-18" value="Users" style="text;html=1;align=center;verticalAlign=middle;whiteSpace=wrap;rounded=0;fontSize=15;" vertex="1" parent="1">
          <mxGeometry x="310" y="260" width="60" height="30" as="geometry" />
        </mxCell>
        <mxCell id="NRGbvaWVTnNYALB_0vKa-19" value="Sql Script parser" style="text;html=1;align=center;verticalAlign=middle;whiteSpace=wrap;rounded=0;fontSize=15;" vertex="1" parent="1">
          <mxGeometry x="760" y="280" width="140" height="30" as="geometry" />
        </mxCell>
        <mxCell id="NRGbvaWVTnNYALB_0vKa-24" value="&lt;ul style=&quot;font-size: 14px;&quot;&gt;&lt;li style=&quot;font-size: 14px;&quot;&gt;Select Resourse&lt;/li&gt;&lt;li style=&quot;font-size: 14px;&quot;&gt;Select Custome Cols&lt;/li&gt;&lt;li style=&quot;font-size: 14px;&quot;&gt;Create Optional Cols&lt;/li&gt;&lt;li style=&quot;font-size: 14px;&quot;&gt;Define Filter Elements&lt;/li&gt;&lt;li style=&quot;font-size: 14px;&quot;&gt;Define Access Data&lt;/li&gt;&lt;/ul&gt;" style="text;html=1;align=left;verticalAlign=middle;whiteSpace=wrap;rounded=0;fontStyle=1;fontSize=14;" vertex="1" parent="1">
          <mxGeometry x="503" y="319" width="196" height="100" as="geometry" />
        </mxCell>
        <mxCell id="NRGbvaWVTnNYALB_0vKa-25" value="Result Table with Filters" style="text;html=1;align=center;verticalAlign=middle;whiteSpace=wrap;rounded=0;fontStyle=1;fontSize=14;" vertex="1" parent="1">
          <mxGeometry x="450" y="550" width="90" height="30" as="geometry" />
        </mxCell>
        <mxCell id="NRGbvaWVTnNYALB_0vKa-26" style="edgeStyle=orthogonalEdgeStyle;rounded=0;orthogonalLoop=1;jettySize=auto;html=1;entryX=0.5;entryY=1;entryDx=0;entryDy=0;entryPerimeter=0;" edge="1" parent="1" source="NRGbvaWVTnNYALB_0vKa-12" target="NRGbvaWVTnNYALB_0vKa-5">
          <mxGeometry relative="1" as="geometry">
            <Array as="points">
              <mxPoint x="805" y="490" />
              <mxPoint x="605" y="490" />
            </Array>
          </mxGeometry>
        </mxCell>
        <mxCell id="NRGbvaWVTnNYALB_0vKa-27" value="Report Designer" style="text;html=1;align=center;verticalAlign=middle;whiteSpace=wrap;rounded=0;fontSize=24;fontStyle=1" vertex="1" parent="1">
          <mxGeometry x="70" y="80" width="230" height="50" as="geometry" />
        </mxCell>
      </root>
    </mxGraphModel>
  </diagram>
</mxfile>
